<svg xmlns="http://www.w3.org/2000/svg" viewBox="0 0 119.19 103.82" width="119.19"  height="103.82" ><defs><style>.cls-1{fill:#7bad5a;}.cls-2{fill:#a84633;}.cls-3{fill:#d5896b;}.cls-4{fill:#4d7f41;}</style></defs><title>Asset 10</title><g id="Layer_2" data-name="Layer 2"><g id="Layer_1-2" data-name="Layer 1"><path class="cls-1" d="M95.72,86.06a4.88,4.88,0,0,0,2.62-.87,10.56,10.56,0,0,0,1.91-3.76c.73-2.27,2.46-7.67,3.42-10,1.12-2.73,4.42-3.75,7.63-6.05,1.67-1.2,3.1-3.48,2.62-5.26-.7-2.58-4.87-2.15-5.27-4.26-.6-3.19,7.59-2.73,8.52-6.26h0a4.54,4.54,0,0,0-2-4.59c-1.77-.94-3.83.57-4.6-.32s.32-2.66.65-3.28c4.51-8.39,8.65-11.38,7.85-14.47a4.75,4.75,0,0,0-4.61-3.27c-1.92.27-2.6,2.86-3.6,2.63-.38-.08-1.15-.64-1.33-5.9-.22-6.55.9-7.85,0-10.51-.86-2.48-3.32-5.65-6.25-5.9-5-.43-12.19,7.72-13.75,14.81-.23,1-.56,3-2,3.62-2.14.93-4.19-2.52-6.24-2-3.14.88-5.37,11-1.59,18.73,2,4.13,5.14,6.41,4.28,7.87-1,1.77-6.07-.94-8.2,1.33-2,2.08-.73,7.59,2.32,10.83,3.5,3.71,9,4.07,8.88,4.9-.11.64-3.27-.14-4.27,1.33-1.15,1.7,1.36,5.28,3.64,8.53A84.19,84.19,0,0,1,93,85.39C93.23,86.13,95.72,86.06,95.72,86.06Z"/><path class="cls-2" d="M1,54.55c1.54,1.4,30.15,1,30.15,1s28.78.26,30.29-1.16S67.22,13.42,33.85,3.4C33.24,3.21,33.31,0,31,0s-2.37,3.26-3,3.46C-4.37,13.61-.55,53.15,1,54.55Z"/><path class="cls-3" d="M.49,60.55C.54,75.14,18.42,80,27.85,81.31c1.07,1.65.6,14.74.75,20,0,2.1,2.91,2,2.91,2s3.25.32,3.09-2c-.38-5.43-.63-19,1.18-20.15,8.8-1.32,27.37-6.45,27.32-21.26,0-1.67-.83-2.54-4.19-2.14-5.87.71-15.75-.2-27.18.13h-.57C9.75,58.82.47,55.72.49,60.55Z"/><path class="cls-4" d="M103.27,4c-5-.43-12.19,7.72-13.75,14.81-.23,1-.56,3-2,3.62-2.14.93-4.19-2.52-6.24-2-3.14.88-5.37,11-1.59,18.73,2,4.13,5.14,6.41,4.28,7.87-1,1.77-6.07-.94-8.2,1.33-2,2.08-.73,7.59,2.32,10.83,3.5,3.71,9,4.07,8.88,4.9-.11.64-3.27-.14-4.27,1.33-1.15,1.7,1.36,5.28,3.64,8.53A84.19,84.19,0,0,1,93,85.39c.19.74,2.68.67,2.68.67"/><path class="cls-3" d="M91.83,103.45,93,85a86.82,86.82,0,0,0,4-12.55s-.5,9.32,1.32,12.38c0,0-2.08,18.07-3.25,18.65s-1.67.31-1.67.31A2.84,2.84,0,0,1,91.83,103.45Z"/></g></g></svg>