<?xml version="1.0" encoding="UTF-8"?>
<svg width="92px" height="101px" viewBox="0 0 92 101" version="1.1" xmlns="http://www.w3.org/2000/svg" xmlns:xlink="http://www.w3.org/1999/xlink">
    <title>Group</title>
    <g id="Page-1" stroke="none" stroke-width="1" fill="none" fill-rule="evenodd">
        <g id="Group" fill-rule="nonzero">
            <path d="M38.2,48.6 C38.2,48.6 28.3,36.5 28,23.3 C27.9,10 37.4,0.6 37.4,0.6 C37.4,0.6 47.3,12.7 47.6,25.9 C47.9,39.2 38.2,48.6 38.2,48.6 Z" id="Path" fill="#B8C934"></path>
            <path d="M91.4,33.5 C91.4,33.5 92.5,60.2 79.2,78.5 C65.9,96.8 43,99.8 43,99.8 C43,99.8 41.9,73.1 55.2,54.8 C68.5,36.4 91.4,33.5 91.4,33.5 Z M54.4,30.3 C54.4,33.8 57.2,36.6 60.7,36.6 C64.2,36.6 67,33.8 67,30.3 C67,26.8 64.2,24 60.7,24 C57.2,24 54.4,26.8 54.4,30.3 Z" id="Shape" fill="#799A3E"></path>
            <path d="M37.9,76.1 L37.9,75.9 L37.9,75.9 C37.9,70.7 37,54.7 28.5,43.1 C18.2,28.9 0.8,26.6 0.8,26.6 C0.8,26.6 -0.1,47.1 10.2,61.2 C17.5,71.2 28.4,75.2 34.1,76.7 L34.1,98.7 C34.1,99.8 35,100.6 36,100.6 C37,100.6 37.9,99.7 37.9,98.7 L37.9,76.7 C37.9,76.5 37.9,76.3 37.9,76.1 Z" id="Path" fill="#B8C934"></path>
        </g>
    </g>
</svg>