<?xml version="1.0" encoding="UTF-8"?>
<svg width="219px" height="267px" viewBox="0 0 219 267" version="1.1" xmlns="http://www.w3.org/2000/svg" xmlns:xlink="http://www.w3.org/1999/xlink">
    <title>bison-iconsrepo-com (1)</title>
    <g id="Buffalo-Icon" stroke="none" stroke-width="1" fill="none" fill-rule="evenodd">
        <g id="Buffalo-Icon-Artboard" transform="translate(-40.000000, -16.000000)" fill="#4F93C0" fill-rule="nonzero" stroke="#4F93C0" stroke-width="0.5">
            <g id="bison-iconsrepo-com-(1)" transform="translate(40.500000, 16.500000)">
                <path d="M210.151773,163.094788 C209.475166,160.136835 209.384772,157.158179 209.885987,154.22714 C210.052609,153.225628 210.309626,152.187886 210.644894,151.149109 C223.825577,110.456683 217.820436,70.7745664 194.169545,42.2788433 C192.037187,39.7095908 187.593707,38.9518579 184.245075,40.5894718 C180.895769,42.2255329 179.910203,45.6342955 182.043235,48.2040656 C203.588077,74.1631434 208.92673,110.715471 196.690463,148.492904 C196.538007,148.965969 196.401741,149.439035 196.272896,149.911065 C184.025836,154.900508 173.649395,159.792646 168.415303,166.714204 C163.235852,173.564854 163.408545,181.402006 169.106751,191.654173 L150.436982,198.324706 C148.353195,199.0695 146.856969,200.539418 146.415117,202.269679 C146.334841,202.584883 138.799745,231.176875 115.101633,250.343789 C111.943909,245.946972 106.585693,240.055392 97.6751221,232.221863 C92.7344738,227.879392 85.0354543,224.943177 76.8844639,221.833574 C59.9193678,215.362826 42.3781775,208.671589 40.4016484,189.071463 C38.5377747,170.601726 32.2762922,154.644307 26.2212323,139.212229 C15.1836999,111.081916 6.46740867,88.8623321 28.2571247,62.8023268 C28.2996235,62.7521218 28.3407731,62.7008817 28.3798989,62.6501591 C28.4804118,62.5212824 38.5856701,49.5621878 50.9096329,36.6796946 C73.5715852,12.991745 82.3438668,11.8551457 83.2707443,11.803388 C110.248006,10.295686 133.940722,14.8467412 153.677681,25.3338877 C156.94199,27.0667357 161.419874,26.4435729 163.679728,23.9395351 C165.940257,21.4349797 165.126709,17.9987855 161.863075,16.2654199 C139.676029,4.47501431 112.136839,-0.873627107 82.228513,0.800217129 C75.496846,1.1754605 63.7192957,4.63235774 39.260928,30.2130867 C26.9126802,43.1281873 17.0455498,55.7011694 16.0950619,56.9190283 C-9.19236869,87.2231656 1.32438538,114.019683 12.4550103,142.39067 C18.2901561,157.26273 24.3236294,172.639944 26.0681018,189.92236 C28.6733427,215.762395 52.8389412,224.979925 70.4846919,231.711015 C77.3222685,234.319086 83.7807293,236.782235 86.8433376,239.475188 C102.726402,253.439418 104.750827,259.282345 104.953876,260.028691 C104.973439,262.008424 106.383318,263.852033 108.685671,264.820937 C109.769052,265.276405 110.956993,265.5 112.141562,265.5 C113.767307,265.5 115.38226,265.077656 116.694999,264.253155 C145.49431,246.174706 156.781439,216.455948 159.711829,207.178897 L180.598278,199.716471 C180.859341,199.66316 181.119731,199.601569 181.376747,199.523932 C181.916413,199.361413 182.410883,199.150242 182.866901,198.905428 L193.507779,195.103824 C206.522515,190.340045 213.876148,179.401571 211.38761,168.500363 L210.151773,163.094788 Z M187.376491,185.126491 L182.147796,186.994427 C177.595707,178.636592 178.969833,174.738202 180.851246,172.249691 C183.365418,168.924776 188.860574,165.838464 195.579424,162.815296 C195.693429,163.54508 195.824973,164.274346 195.992269,165.001542 L197.228106,170.404529 C198.60493,176.445171 194.530447,182.508069 187.376491,185.126491 Z" id="Shape"></path>
                <path d="M179.612666,28.6436382 C178.961746,28.1202897 178.302199,27.6028771 177.636018,27.0928845 C174.910248,25.0078998 170.434757,24.9638752 167.636663,26.9954368 C164.839232,29.0269983 164.781505,32.3644577 167.505948,34.449937 C168.093833,34.8990868 168.673092,35.3541724 169.245716,35.8137099 C170.639124,36.9331216 172.531503,37.5 174.430518,37.5 C176.151708,37.5 177.877542,37.0340319 179.238436,36.0931919 C182.100893,34.1130748 182.268765,30.777594 179.612666,28.6436382 Z" id="Path"></path>
                <path d="M147.762642,120.5 C143.490249,120.5 140.025284,123.273157 140.025284,126.692531 C140.025284,129.130957 137.547093,131.114938 134.500363,131.114938 C131.453633,131.114938 128.974716,129.131538 128.974716,126.692531 C128.974716,123.273157 125.509751,120.5 121.237358,120.5 C116.964966,120.5 113.5,123.273157 113.5,126.692531 C113.500726,135.960407 122.921192,143.5 134.500363,143.5 C146.079534,143.5 155.5,135.960407 155.5,126.692531 C155.5,123.273157 152.035034,120.5 147.762642,120.5 Z" id="Path"></path>
                <path d="M96.6426815,78.5849441 C96.1246351,78.5849441 95.6367395,78.5849441 94.8630962,77.5504031 C89.8943735,70.9032978 94.3464203,50.4554772 103.075776,39.8270809 C103.078517,39.824005 103.081943,39.8188784 103.08537,39.8147772 C103.21214,39.6594422 103.329317,39.4989807 103.435531,39.3339053 C103.541744,39.1703678 103.634937,39.0042671 103.716482,38.8366284 C103.717852,38.8335525 103.719223,38.8299639 103.721278,38.8263753 C103.799396,38.6659138 103.865865,38.5008383 103.924111,38.3337123 C103.933019,38.3085921 103.938501,38.2834719 103.946724,38.2583518 C103.994692,38.1127573 104.035806,37.9645995 104.068013,37.8143912 C104.070754,37.8015747 104.072125,37.789271 104.074866,37.7759419 C104.129,37.5103858 104.163262,37.2397031 104.163262,36.9623559 C104.163262,36.8957106 104.152984,36.8306032 104.150243,36.7639578 C104.149557,36.7424262 104.147502,36.7214073 104.146131,36.6998757 C104.133111,36.4958384 104.10022,36.2959024 104.057734,36.0990422 C104.050882,36.0672575 104.043344,36.0354728 104.035806,36.0036881 C103.938501,35.5945881 103.78158,35.2018932 103.570524,34.8297045 C103.560931,34.8127869 103.549967,34.7953565 103.540373,34.7784389 C103.319724,34.400611 103.044255,34.0453399 102.720133,33.718265 C102.689982,33.6880183 102.659831,33.6582842 102.628995,33.6285501 C102.293225,33.3040385 101.910172,33.009261 101.486689,32.7483188 C101.454483,32.7288378 101.422961,32.7088442 101.39007,32.6893633 C101.165994,32.5560726 100.932325,32.4325223 100.688377,32.3197379 C100.684266,32.3181999 100.680839,32.315124 100.676728,32.313586 C100.6548,32.3033329 100.632187,32.295643 100.609574,32.2853899 C100.476636,32.2259217 100.343013,32.1679915 100.205278,32.1151879 C100.170331,32.1013462 100.134698,32.0900677 100.09975,32.0767387 C99.9695535,32.0285489 99.8400419,31.9808719 99.7064188,31.938834 C99.6515991,31.9214037 99.5954088,31.9070493 99.5405891,31.8906443 C99.4254677,31.856809 99.3103463,31.8219483 99.1924839,31.7917016 C99.0170608,31.7476131 98.8409524,31.7081386 98.6634735,31.6737906 C98.6593621,31.6732779 98.6545653,31.6722526 98.6504539,31.6712273 C98.4325455,31.6297021 98.2132666,31.5974048 97.9933024,31.5712593 C97.9693188,31.568696 97.9453352,31.56562 97.919981,31.5630568 C97.7164628,31.5404999 97.5122593,31.5251202 97.3080559,31.5158924 C97.2676263,31.5143544 97.227882,31.5128164 97.1874525,31.5117911 C97.0784983,31.5076898 96.9722851,31.5 96.8619604,31.5 C96.7811013,31.5 96.7036684,31.5082025 96.6234946,31.5102531 C96.5529142,31.5117911 96.4823338,31.5158924 96.4117534,31.5189683 C96.2260516,31.5276835 96.041035,31.5374239 95.8573889,31.5563922 C95.8395725,31.5579302 95.8231266,31.5615188 95.8059954,31.5630568 C95.1440473,31.6353413 94.51225,31.7727333 93.9208822,31.9685681 C93.8866199,31.9798466 93.8523575,31.9885617 93.8180952,32.0008655 C93.7776657,32.0147072 93.7358656,32.0244477 93.6961213,32.0382894 C91.6013226,32.7334517 81.1917423,36.4348323 70.8157391,44.5460848 C60.6357164,52.502515 48.5,66.4401096 48.5,87.6543517 C48.5,97.8034142 52.8047188,105.494801 61.2935531,110.516272 C69.4411345,115.335244 79.7657442,116.5 87.8495978,116.5 C94.5355483,116.5 99.6783237,115.703844 100.791849,115.517237 C112.623316,114.02797 121.5,106.20278 121.5,97.1872009 C121.5,86.9294553 110.348983,78.5849441 96.6426815,78.5849441 Z M98.2125813,104.765803 C98.1084238,104.777594 98.0090631,104.797588 97.9055909,104.812455 C97.8171941,104.824759 97.7294825,104.832449 97.6410857,104.847828 C92.8135238,105.683971 78.4891299,106.787208 70.3127681,101.923122 C65.4612226,99.0373786 63.1026039,94.370153 63.1026039,87.6543517 C63.1026039,73.6711307 69.1334588,61.7990295 81.0265979,52.3661483 C81.0313946,52.3620471 81.0361913,52.3589711 81.0409881,52.3548699 C77.3721781,63.7143145 76.9178596,75.9314336 82.1154547,82.8845949 C85.3107593,87.1591255 90.4699806,89.5122192 96.6426815,89.5122192 C102.295965,89.5122192 106.894655,92.9557335 106.894655,97.1877136 C106.894655,100.945999 103.162117,104.204444 98.2125813,104.765803 Z" id="Shape"></path>
            </g>
        </g>
    </g>
</svg>