<?xml version="1.0" encoding="UTF-8"?>
<svg width="597px" height="250px" viewBox="0 0 597 250" version="1.1" xmlns="http://www.w3.org/2000/svg" xmlns:xlink="http://www.w3.org/1999/xlink">
    <title>Mountain</title>
    <defs>
        <linearGradient x1="50%" y1="0%" x2="50%" y2="77.6472762%" id="linearGradient-1">
            <stop stop-color="#687D87" offset="0%"></stop>
            <stop stop-color="#37474F" offset="100%"></stop>
        </linearGradient>
        <rect id="path-2" x="0" y="0" width="597" height="259"></rect>
    </defs>
    <g id="Mountain2" stroke="none" stroke-width="1" fill="none" fill-rule="evenodd">
        <g id="Mountain" transform="translate(0.000000, -9.000000)">
            <polygon fill="url(#linearGradient-1)" points="0 259 77 137 110 180 199 36.5 210 57.5 233 9 282.5 105.5 322 36.5 349.5 80.5 358.5 66.5 412 144.5 448 105.5 597 259"></polygon>
            <g id="Ski-Trail">
                <mask id="mask-3" fill="white">
                    <use xlink:href="#path-2"></use>
                </mask>
                <g id="Rectangle"></g>
                <path d="M164.802178,93.0215845 C171.94401,98.4797866 180.449693,116.457571 180.449693,124.505351 C180.449693,133.805634 162.523412,140.849368 162.523412,148.457036 C162.523412,156.064704 196.875743,156.89612 196.875743,167.10062 C196.875743,179.319589 143.138716,179.303001 143.138716,187.268053 C143.138716,197.857238 207.661048,194.177497 207.661048,207.332904 C207.661048,220.488312 143.138716,222.669023 143.138716,232.111597 C143.138716,238.406647 190.805382,249.376643 286.138716,265.021585" id="SkiTrail" stroke="#CFD8DC" stroke-width="5" mask="url(#mask-3)"></path>
            </g>
            <polygon id="Snow1" fill="#D8D8D8" points="77.5 149 120 209 90.5 187 77.5 203"></polygon>
            <polygon id="Snow2" fill="#D8D8D8" points="199 49.5 218 82 202 73.5"></polygon>
            <polygon id="Snow3" fill="#D8D8D8" points="233 22.5 286 127 255.5 93 243.5 105.5"></polygon>
            <polygon id="Snow4" fill="#D8D8D8" points="324 50 354 102.5 334 99.5 324 113"></polygon>
            <polygon id="Snow5" fill="#D8D8D8" points="359 77 394 134 370.5 115.5"></polygon>
            <polygon id="Snow6" fill="#D8D8D8" points="449 113 496.5 166.5 459 145"></polygon>
        </g>
    </g>
</svg>